<?xml version="1.0" encoding="utf-8"?>
<!-- Generator: Adobe Illustrator 27.5.0, SVG Export Plug-In . SVG Version: 6.00 Build 0)  -->
<svg version="1.1" id="Laag_1" xmlns="http://www.w3.org/2000/svg" xmlns:xlink="http://www.w3.org/1999/xlink" x="0px" y="0px"
	 viewBox="0 0 841.89 595.28" style="enable-background:new 0 0 841.89 595.28;" xml:space="preserve">
<style type="text/css">
	.st0{stroke:#FFFFFF;stroke-width:8;stroke-miterlimit:10;}
	.st1{fill:none;stroke:#FFFFFF;stroke-width:8;stroke-linecap:round;stroke-miterlimit:10;}
</style>
<circle cx="424.95" cy="294.31" r="284"/>
<g>
	<path class="st0" d="M317.53,274.94c1.83,3.77,3.04,10.89,2.52,15.77c-0.15,4.34-2.76,6.87-6.19,8.22
		c0.02,1.02,0.04,2.12,0.09,3.29c0.21,5.32,0.32,7.98,0.64,9.83c1.56,8.98,4.87,11.95-0.19,14.86c-3.71,2.14-10.81,3.59-15.71,3.04
		c-3.19-0.1-5.44-1.74-6.99-4.14c-9.76,3.13-21.13,2.05-29.93-3.3c-12.23-6.91-18.11-21.1-18.3-34.53
		c-1.77-30.16,16.44-67,50.75-64.12c9.65,0.66,17.96,8.39,19.21,17.91c1.05,8.2-0.5,17.32-6.19,23.44
		c-4.95,5.41-14.56,6.74-19.4,0.98c-2.48-2.93-3.26-6.61-3.6-10.44c-8.16,6.6-11.68,19.19-13.04,28.94
		c-0.82,6.49-2.11,14.16,4.79,17.43c6.87,2.92,10.99-0.33,15.48-3.03c0.15-0.53,0.3-1.13,0.44-1.86c0.03-0.17,0.06-0.33,0.09-0.5
		c-0.13-0.04-0.27-0.07-0.41-0.11c-6.99-1.81-9.45,0.89-10.94-3.78c-1.13-3.56-1.24-9.93-0.31-13.91c1.38-5.91,4.44-4.03,15.75-4.2
		c4.62-0.07,6.92-0.1,8.53-0.37C312.43,273.04,315.04,269.81,317.53,274.94z"/>
	<path class="st0" d="M379.23,351.13c1.55,5.91,3.74,12.74-1.87,16.15c-5.28,3.11-12.97,2.84-18.44,1.07
		c-5.28-1.63-7.76-5.52-9.11-10.5c-0.99-3.51-2.78-10.96-3.26-14.5c-0.18-1.34,0.08-1.73-2.4-5.69c-0.37-0.58-0.8-1.04-1.27-1.4
		c0.16,2.36,0.34,4.71,0.53,7.06c0.31,5.68,1.23,10.97-0.56,16.35c-1.73,5.57-8.43,10.98-14.58,8.81c-3.59-1.18-5.52-4.95-7.81-7.46
		c-4.76-4.31-5.96-2.55-6.84-10.22c-1.07-11.71-1.49-24.27-0.05-35.86c0.56-6.83,2.42-11.61,2.85-18.61
		c1.56-10.3-3.35-22.05,2.11-26.02c3.47-2.43,9.92-3.24,14.81-1.43c0.18-0.06,0.36-0.11,0.53-0.17c11.52-3.13,25.37-2.39,34.88,5.66
		c10.11,8.38,13.17,23.49,8.3,35.28c-2.39,5.8-5.9,10.13-10.24,13.93c0.33,0.36,0.65,0.73,0.97,1.11
		C373.72,332.18,376.31,342.83,379.23,351.13z M341.59,293.97c0.21,4.61,0.42,11.02,0.57,16.97c1.17,0.18,2.35,0.44,3.5,0.72
		c2.43-0.74,4.84-2.8,7.53-8.24c1.36-3.54,1.38-8.05-2.23-9.61C348.1,293.01,344.81,293.41,341.59,293.97z"/>
	<path class="st0" d="M363.32,240.33c-2.23-6.12,0.18-14.34,4.12-19.35c5.25-7.1,14.16-11.31,23.09-11.38
		c38.49,0.84,50.17,47.64,36.71,77.74c-9.16,23.12-36.53,34.12-56.07,16.82c-8.85-8.59-12.4-21.39-12.97-33.24
		C357.89,264.37,358.59,248.68,363.32,240.33z M380.78,241.79c3.2,6.35,2.17,14.98,1.86,22.24c-0.08,7.06,0.46,15.02,5.18,20.71
		c6.6,3.98,11.86-5.3,13.22-10.81c2.5-9.24,2.81-19.25-1.69-27.48c-2.55-4.63-6.05-7.02-11.16-6.51
		C385.67,239.53,383.21,240.51,380.78,241.79z"/>
	<path class="st0" d="M422.63,281.72c-2.23-6.12,0.18-14.34,4.12-19.35c5.25-7.1,14.16-11.31,23.09-11.38
		c38.5,0.84,50.17,47.64,36.71,77.74c-9.16,23.12-36.53,34.12-56.07,16.82c-8.85-8.59-12.4-21.39-12.97-33.24
		C417.2,305.77,417.9,290.08,422.63,281.72z M440.09,283.19c3.2,6.35,2.17,14.98,1.86,22.24c-0.08,7.06,0.46,15.02,5.17,20.71
		c6.6,3.98,11.86-5.3,13.22-10.81c2.5-9.24,2.81-19.25-1.69-27.48c-2.55-4.63-6.05-7.02-11.16-6.51
		C444.98,280.93,442.52,281.9,440.09,283.19z"/>
	<path class="st0" d="M547.81,229.1c2.7,3.21,0.88,7.96,0.52,11.82c-1.71,10.29-3.94,21.19-7.47,30.9
		c-3.28,9.01-5.95,15.64-6.86,17.76c-9.82,22.88-14.68,25.36-16.75,26.19c-6.9,2.77-13.98-0.2-14.84-0.58
		c-6.16-2.69-9.46-8.96-11.93-14.86c-4.01-9.58-7-19.78-10.22-29.64c-2.3-7.05-3.11-14.76-4.3-22.04
		c-1.29-7.82-3.59-16.04-1.71-23.86c1.27-5.04,6.38-9.81,11.84-9.6c4.22-0.03,8.5,3.25,11.16,5.56c1.42,1.23,2.77,2.16,4.01,3.34
		c3.49,3.78,3.28,10.69,4.31,15.67c1.66,9.65,3.4,18.72,4.64,28.38c0.26,2.84,0.07,5.69,0.55,8.5c0.8-4.98,1.34-11.3,3.23-19.61
		c1.6-7.01,2.69-13.1,3.73-19.97c1.03-5.77,1.39-11.32,4.51-16.26c3.09-4.96,10.44-8.42,16.01-5.69c3.9,1.84,5.04,6.56,6.58,10.04
		C545.53,226.74,546.61,227.93,547.81,229.1z"/>
	<path class="st0" d="M593.21,340.12c3.45,5.45,7.02,11.42,4.68,17.84c-2.84,7.81-10.67,10.05-11.42,10.26
		c-5.45,0.9-9.83,0.96-12.73,0.87c-7.16-0.24-9.9-1.57-16.14-0.65c-5.13,0.75-5.03,1.91-8.19,1.93c-0.53,0.05-1.08,0.02-1.65-0.09
		c-0.01,0-0.01,0-0.02,0c-2.1-0.41-4.44-1.95-6.83-4.73c-1.77-1.94-5.13-2.74-7.13-4.34c-0.37-0.3-0.7-0.63-0.96-0.99
		c-1.27-3.23-0.62-6.63-0.59-10.3c0.41-7.86,0.86-13.85,0.9-23.53c0.19-8.19-0.09-14.77-0.65-20.63
		c-0.96-9.93-3.62-12.29-3.33-21.29c0.07-2.04,0.25-3.8,0.43-5.17c0-0.03,0.01-0.06,0.01-0.09c0.02-0.18,0.05-0.35,0.07-0.51
		c0.02-0.1,0.03-0.2,0.05-0.3c0.01-0.09,0.03-0.19,0.04-0.28c1-5.98,3.98-11.91,10.21-11.15c1.24,0.12,3.27,0.35,5.73,0.62
		c1.29,0.14,2.71,0.29,4.19,0.44c6.95,0.7,15.44,1.4,20.3,1.06c8.94,0.34,18.85-6.57,23.12,0.07c3.13,4.36,5.26,12.45,4.48,17.91
		c-1.16,12.07-22.89,12.58-33.56,11.15c-0.95-0.12-1.82-0.27-2.64-0.44c0.24,2.74,0.39,5.44,0.47,7.97
		c4.14-0.62,8.26-1.07,12.13-1.62c3.37-0.27,7.76-1.2,9.67,2.26c2.45,5.8-0.44,14.56-2.92,20.11c-1.76,3.46-3.04,5.87-6.31,7.34
		c-2.89,0.89-6.11,1.63-9.07,0.8c-2.09-0.33-3.92-1.42-5.87-1.99c-0.47,1.86-0.97,3.99-1.51,7.4c4.91,0.36,9.81,0.56,13.03,0.28
		C579.8,340.52,589.05,333.55,593.21,340.12z"/>
</g>
<path class="st1" d="M337.25,99.82c13.85-8.81,45.04-26.05,88.51-28.36c44.67-2.37,78.25,12.3,92.88,19.76"/>
<path class="st1" d="M219.32,164.25c10.14-19.12,35.37-60.48,85.57-91.65c48.27-29.98,94.53-34.96,116.13-35.93"/>
<path class="st1" d="M510.96,495.99c13.17-3.64,42.28-13.58,68.37-40.49c24.61-25.37,33.9-52.8,37.45-65.97"/>
<path class="st1" d="M416.69,548.26c21.63,0.5,70.05-1.28,121.79-29.83c49.75-27.45,76.71-65.37,88.12-83.73"/>
<path class="st1" d="M211.62,288.02c-0.89,7.24-2.01,24.49,7.01,43.21c6.76,14.04,16.26,22.74,21.84,27.13"/>
<path class="st1" d="M277.52,436.88c-14.04-7.91-37.65-23.67-57.75-51.63c-16.07-22.34-23.75-43.94-27.59-58.29"/>
<path class="st1" d="M605.62,200.02c4.6,3.45,14.09,11.55,20.2,25.51c5.91,13.5,5.62,25.55,5.11,31.27"/>
<path class="st1" d="M642.16,204.69c6.14,10.09,15.8,28.89,18.96,54.49c3.2,25.88-1.73,46.67-5.28,57.98"/>
</svg>
